<svg xmlns="http://www.w3.org/2000/svg" viewBox="0 0 1080 650"><defs><linearGradient id="a" x1="50%" x2="50%" y1="0%" y2="100%"><stop offset="0%" stop-color="#738298"/><stop offset="100%" stop-color="#A0AEC0"/></linearGradient><linearGradient id="b" x1="50%" x2="50%" y1="0%" y2="100%"><stop offset="0%" stop-color="#E2E8F0"/><stop offset="100%" stop-color="#CBD5E0"/></linearGradient><linearGradient id="c" x1="50%" x2="50%" y1="0%" y2="100%"><stop offset="0%" stop-color="#E2E8F0"/><stop offset="100%" stop-color="#CBD5E0"/></linearGradient><linearGradient id="d" x1="50%" x2="50%" y1="0%" y2="100%"><stop offset="0%" stop-color="#F8FAFC"/><stop offset="100%" stop-color="#E2E8F0"/></linearGradient><linearGradient id="e" x1="50%" x2="50%" y1="0%" y2="100%"><stop offset="0%" stop-color="#F7FAFC"/><stop offset="100%" stop-color="#EDF2F7"/></linearGradient><linearGradient id="f" x1="50%" x2="50%" y1="0%" y2="100%"><stop offset="0%" stop-color="#718096"/><stop offset="100%" stop-color="#A0AEC0"/></linearGradient><linearGradient id="g" x1="50%" x2="50%" y1="0%" y2="100%"><stop offset="0%" stop-color="#718096"/><stop offset="100%" stop-color="#A0AEC0"/></linearGradient><linearGradient id="h" x1="50%" x2="50%" y1="0%" y2="100%"><stop offset="0%" stop-color="#A0AEC0"/><stop offset="100%" stop-color="#EDF2F7"/></linearGradient><linearGradient id="i" x1="50%" x2="50%" y1="0%" y2="100%"><stop offset="0%" stop-color="#F7BE66"/><stop offset="100%" stop-color="#ED8936"/></linearGradient><linearGradient id="j" x1="50%" x2="50%" y1="100%" y2="0%"><stop offset="0%" stop-color="#ED8936"/><stop offset="100%" stop-color="#F6AD55"/></linearGradient><linearGradient id="k" x1="64.34%" x2="64.34%" y1="100%" y2="0%"><stop offset="0%" stop-color="#ED8936"/><stop offset="100%" stop-color="#F6AD55"/></linearGradient><linearGradient id="l" x1="50%" x2="50%" y1="0%" y2="100%"><stop offset="0%" stop-color="#ED8936"/><stop offset="100%" stop-color="#F6AD55"/></linearGradient><linearGradient id="m" x1="32.33%" x2="67.67%" y1="0%" y2="100%"><stop offset="0%" stop-color="#F6AD55"/><stop offset="100%" stop-color="#ED8936"/></linearGradient><linearGradient id="n" x1="50%" x2="50%" y1="0%" y2="100%"><stop offset="0%" stop-color="#2D3748"/><stop offset="100%" stop-color="#1A202C"/></linearGradient><linearGradient id="o" x1="4.17%" x2="95.83%" y1="0%" y2="102.26%"><stop offset="0%" stop-color="#E2E8F0"/><stop offset="100%" stop-color="#CBD5E0"/></linearGradient><linearGradient id="p" x1="62.94%" x2="37.06%" y1="0%" y2="100%"><stop offset="0%" stop-color="#7F9CF5"/><stop offset="100%" stop-color="#667EEA"/></linearGradient><linearGradient id="q" x1="50%" x2="50%" y1="0%" y2="100%"><stop offset="0%" stop-color="#A0AEC0"/><stop offset="100%" stop-color="#4A5568"/></linearGradient><linearGradient id="r" x1="50%" x2="50%" y1="0%" y2="100%"><stop offset="0%" stop-color="#CFD8E3"/><stop offset="100%" stop-color="#A0AEC0"/></linearGradient><linearGradient id="s" x1="64.34%" x2="64.34%" y1="100%" y2="0%"><stop offset="0%" stop-color="#ED8936"/><stop offset="100%" stop-color="#F6AD55"/></linearGradient><linearGradient id="t" x1="50%" x2="50%" y1="0%" y2="100%"><stop offset="0%" stop-color="#A3BFFA"/><stop offset="100%" stop-color="#667EEA"/></linearGradient><linearGradient id="u" x1="50%" x2="50%" y1="67.47%" y2="100%"><stop offset="0%" stop-color="#E2E8F0"/><stop offset="100%" stop-color="#CBD5E0"/></linearGradient></defs><g fill="none" fill-rule="evenodd"><g transform="translate(493 7)"><path fill="#EDF2F7" d="M47 0h510v517H.28L47 0z"/><circle cx="469" cy="94" r="37" fill="#E2E8F0"/><circle cx="469" cy="94" r="32" fill="#CBD5E0"/><circle cx="469" cy="94" r="30" fill="#FFFFFF"/><path fill="#CBD5E0" d="M470.9 93.01l3.8 3.12-1 1.74-3-1.12-.7 4.25h-2l-.99-5.92-12.37-8.21 1-1.74 11.56 5.74L468 74h2l.9 19.01z"/><path fill="#F8FAFC" d="M42.3 52H362v241H20.52L42.3 52z"/><path fill="url(#a)" d="M39.86 68H346v209H20.97L39.86 68z"/><circle cx="84.5" cy="157.5" r="2.5" fill="#CBD5E0"/><circle cx="64" cy="127" r="2" fill="#CBD5E0"/><circle cx="97.5" cy="134.5" r="2.5" fill="#CBD5E0"/><circle cx="143" cy="94" r="2" fill="#CBD5E0"/><circle cx="183" cy="90" r="2" fill="#CBD5E0"/><circle cx="183" cy="117" r="2" fill="#CBD5E0"/><circle cx="207" cy="107" r="2" fill="#CBD5E0"/><circle cx="224" cy="90" r="2" fill="#CBD5E0"/><circle cx="235.5" cy="127.5" r="2.5" fill="#CBD5E0"/><circle cx="209" cy="133" r="2" fill="#CBD5E0"/><circle cx="189.5" cy="153.5" r="2.5" fill="#CBD5E0"/><circle cx="209" cy="160" r="2" fill="#CBD5E0"/><circle cx="249.5" cy="163.5" r="2.5" fill="#CBD5E0"/><circle cx="228.5" cy="178.5" r="1.5" fill="#CBD5E0"/><circle cx="208.5" cy="198.5" r="1.5" fill="#CBD5E0"/><circle cx="259" cy="191" r="2" fill="#CBD5E0"/><circle cx="287.5" cy="178.5" r="1.5" fill="#CBD5E0"/><circle cx="297.5" cy="208.5" r="1.5" fill="#CBD5E0"/><circle cx="97.5" cy="198.5" r="1.5" fill="#CBD5E0"/><circle cx="114.5" cy="107.5" r="2.5" fill="#CBD5E0"/><circle cx="123.5" cy="146.5" r="1.5" fill="#CBD5E0"/><circle cx="113.5" cy="176.5" r="1.5" fill="#CBD5E0"/><circle cx="63.5" cy="176.5" r="1.5" fill="#CBD5E0"/><circle cx="43.5" cy="156.5" r="1.5" fill="#CBD5E0"/><circle cx="54.5" cy="97.5" r="2.5" fill="#CBD5E0"/><circle cx="84" cy="103" r="2" fill="#CBD5E0"/><circle cx="104" cy="87" r="2" fill="#CBD5E0"/><path fill="#CBD5E0" d="M156.8 120H154v-8h2v-2h-2v-4h6V88h4v18h6v4h-2v2h2v8h-2.8l5.8 58h4v4h-2.8l12 40h3.8v10l18 36h-21a25 25 0 1 0-50 0h-21l18-36v-10h3.8l12-40H147v-4h4l5.8-58zM171 222l-5-30h-8l-5 30h18z"/><polygon fill="#CBD5E0" points="18 266 38 266 38 242 78 242 78 263 108 263 108 254 178 254 178 248 218 248 218 264 235 263 235 242 245 242 245 234 265 234 265 252 285 252 285 261 297 261 297 218 319 240 319 261 347 261 347 277 18 277"/><rect width="60" height="80" x="410" y="184" fill="#E2E8F0"/><rect width="80" height="60" x="507" y="184" fill="#E2E8F0"/><rect width="40" height="60" x="420" y="194" fill="#FFFFFF"/><rect width="60" height="40" x="517" y="194" fill="#FFFFFF"/><path fill="url(#b)" d="M44.1 32H380v8H43.39l.72-8z"/><path fill="#A0AEC0" d="M379.34 277c.9 14.96 1.67 27.23 2.06 32.39 1.34 17.61 1.73 46.12 1.53 50.91-13.75 8.8-22.56 13.79-26.44 14.96V360.3c-3.57-1.75-7.51-4.56-11.81-8.45-6.45-5.83-4.96-4.68-10.34-6.7 0-.99.27-3.5.8-7.54-3.2-3.02-5.75-5.05-7.67-6.1a30.9 30.9 0 0 1-8.7-6.84c1.84-18.24 3.58-31.4 5.25-39.46.43-2.1 1.06-4.91 1.8-8.21h53.52z"/><path fill="#E2E8F0" d="M224.19 26.03a37.54 37.54 0 0 0 7.55-2.92c3.31-1.76 12.16-7.27 20.2-3.64 8.05 3.64 10.4 1.65 14.88 0 4.47-1.64 8.77-1.89 13.48 0 4.7 1.9 7.59.35 12.6-2.56 5.03-2.91 9.97-.83 15.35 1.17 5.37 2 5.3 4.13 10.53 3.07 5.24-1.06 5.3-1.33 8.69 0 3.38 1.33 5.1 1.18 6.87 0 1.77-1.18 3.46-1.96 7.35 0 3.89 1.96 6.48-3.54 11.4-4.24 4.91-.7 7.47 3.96 11.54 2.56 2.72-.92 4.87-.59 6.47 1.02-.72 4.8-1.08 7.8-1.08 9.01 0 1.82 1.85 74.5 2.55 85.26.7 10.74 1.7 55.1 1.7 62.78s5.8 108.23 7.13 125.85c1.34 17.61 1.73 46.12 1.53 50.91-13.75 8.8-22.56 13.79-26.44 14.96V354.3c-3.57-1.75-7.51-4.56-11.81-8.45-6.45-5.83-4.96-4.68-10.34-6.7 0-.99.27-3.5.8-7.54-3.2-3.02-5.75-5.05-7.67-6.1a30.9 30.9 0 0 1-8.7-6.84c1.84-18.24 3.58-31.4 5.25-39.46 2.49-12.1 11.38-47.26 12.38-66.23-6.2-3.86-15-10.73-26.4-20.61-17.1-14.83-76.33-70.96-85.81-166.34z"/><path fill="#CBD5E0" d="M253.2 20.02c4.29 1.74 6.83 1.74 9.11 1.12C265.94 81.84 285.17 133.78 320 177c-41.51-44.75-63.78-97.08-66.8-156.98zm28.11-.18c3.2 1 5.62.31 8.7-1.3A313.3 313.3 0 0 0 316 141c-17.04-26.21-28.6-66.6-34.69-121.16zm29.75-.49c2.59 1.4 3.49 2.49 6.95 1.94.4 59.58 11.39 119.49 32.99 179.71-25.02-58.6-38.33-119.15-39.94-181.65z"/><path fill="#E2E8F0" d="M328.02 21.36c1.76.64 3.04.84 4.13.68.67 17.37 1.62 43.03 2.85 76.96-4.4-27.66-6.73-53.54-6.98-77.64z"/><path fill="#CBD5E0" d="M342.13 21.34c1.75.65 3.26-.19 4.87-1.31.06 28.06 1.4 71.05 4 128.97-4.52-39.42-7.48-81.97-8.87-127.66z"/><path fill="#E2E8F0" d="M358.04 17.88c2.02.97 3.8 2.2 5.96 1.77.05 28.36 1.38 79.82 4 154.35-3.98-43.79-7.3-95.83-9.96-156.12z"/><path fill="#CBD5E0" d="M335.03 331.5a62.63 62.63 0 0 0-4.9-4.22c1.42-17.46 4.7-45.22 9.87-83.28-.66 7.3-2.32 36.48-4.97 87.5zm10.14 14.79l-.49-.44c-1.57-1.41-2.66-2.42-3.5-3.15 1.32-18.04 3.27-52.27 5.82-102.7 1.3 29.36.7 64.8-1.83 106.29zm11.18 7.94a38 38 0 0 1-4.33-2.54c.17-21.16 1.5-63.72 3.98-127.69 1.88 13.76 2 57.17.35 130.23zm21.5 3.3L374 359.9V264c1.86 13.63 3.14 44.8 3.85 93.52zM224.19 26.02a37.54 37.54 0 0 0 7.55-2.92c3.5 29.93 10.6 57.56 21.26 82.89 16.06 38.14 44.72 73.14 86 105-2.47 22.34-5.47 41-9 56-2.67 11.33-5.6 29.37-8.82 54.12a24.58 24.58 0 0 1-2.4-2.45c1.83-18.24 3.57-31.4 5.24-39.46 2.49-12.1 11.38-47.26 12.38-66.23-6.2-3.86-15-10.73-26.4-20.61-17.1-14.83-76.33-70.96-85.81-166.34z"/><path fill="#CBD5E0" d="M374.44 182.69c.18 4.03.48 10 .86 17.2-10.23 9.6-10.63 10-18.96 18.09-5.7 5.53-13.42 11.75-23.17 18.63 1.62-8.72 2.89-17.13 3.23-23.63-.63-.39-1.28-.8-1.96-1.26 6.92-4.12 16.84-8.95 21.9-13.35 4.56-3.97 10.6-9.2 18.1-15.68z"/><path fill="#CBD5E0" d="M328 210.34c0 6.01 1.49 12.94 4.45 20.78 10.1-7.1 18.06-13.47 23.89-19.14 8.75-8.5 8.75-8.5 20.57-19.61 0-7.4-.5-12.91-1.49-16.53-7.96 6.88-14.33 12.39-19.08 16.53-7.13 6.2-23.89 13.24-28.34 17.97z"/><path fill="#E2E8F0" d="M334.76 229.48c9-6.44 16.2-12.27 21.58-17.5 8.75-8.5 8.75-8.5 20.57-19.61 0-7.4-.5-12.91-1.49-16.53-7.96 6.88-14.33 12.39-19.08 16.53-5.9 5.13-18.39 10.84-25.04 15.33-1.16 8.13 1.87 16.3 3.46 21.78z"/><path fill="#F7FAFC" d="M328 210.34c0 .54.02 1.1.04 1.66 4.03-2.17 7.02-3.83 8.96-5 7.43-4.46 13.78-7.83 18-11 2.4-1.8 6.71-5.11 16-14 .68-.65 2.24-2.34 4.7-5.07-.09-.38-.18-.75-.28-1.1-7.96 6.9-14.33 12.4-19.08 16.54-7.13 6.2-23.89 13.24-28.34 17.97z"/><polygon fill="#CBD5E0" points="379 33 389 33 389 39 379 39"/><circle cx="393" cy="36" r="8" fill="url(#c)"/></g><g transform="translate(0 25)"><path fill="#F8FAFC" d="M507.29 12l-47.62 527H0V12h507.29z"/><g stroke="#EDF2F7" stroke-width="2" transform="translate(32 361)"><rect width="58" height="18" x="1" y="1"/><rect width="58" height="18" x="63" y="1"/><rect width="58" height="18" x="32" y="23"/></g><rect width="58" height="18" x="1" y="1" stroke="#EDF2F7" stroke-width="2" transform="translate(52 251)"/><rect width="58" height="18" x="1" y="1" stroke="#EDF2F7" stroke-width="2" transform="translate(12 181)"/><rect width="58" height="18" x="1" y="1" stroke="#EDF2F7" stroke-width="2" transform="translate(102)"/><g stroke="#EDF2F7" stroke-width="2" transform="translate(73 451)"><rect width="58" height="18" x="32" y="1"/><rect width="58" height="18" x="1" y="23"/></g><g stroke="#EDF2F7" stroke-width="2" transform="translate(319)"><rect width="58" height="18" x="32" y="1"/><rect width="58" height="18" x="1" y="23"/></g><g stroke="#EDF2F7" stroke-width="2" transform="translate(342 421)"><rect width="58" height="18" x="1" y="1"/><rect width="58" height="18" x="32" y="23"/></g><path fill="#E2E8F0" d="M503.67 52l-21.41 237H123V52h380.67z"/><path fill="url(#d)" d="M501.14 80l-18.88 209H151V80h350.14z"/><polygon fill="#CBD5E0" points="151 260 166 260 166 240 186 240 186 250 241 250 241 211 271 211 271 234 311 234 311 221 351 221 351 251 368 251 368 231 378 231 378 211 398 211 398 241 418 241 418 254 480 255 480 289 151 289"/><path fill="#CBD5E0" d="M206.82 154H206a4 4 0 0 1-4-4v-7a4 4 0 0 1 4-4h2v-18.27a2 2 0 0 1-1-1.73v-1c0-1.1.9-2 2-2h.06l.94-30h2l.94 30h.06a2 2 0 0 1 2 2v1a2 2 0 0 1-1 1.73V139h2a4 4 0 0 1 4 4v7a4 4 0 0 1-4 4h-.82L219 282h-16l3.82-128z"/><path fill="#E2E8F0" d="M481.45 298l-2.62 29H123v-29h358.45z"/><path fill="#A0AEC0" d="M480.54 308l-.54 6H123v-6h357.54z"/><path fill="#CBD5E0" d="M481.45 298l-.9 10H103v-10h378.45z"/><rect width="6" height="208" x="151" y="80" fill="#F1F5F9"/><path fill="url(#e)" d="M482.62 285l-1.17 13H103l20-10h28l6-3h325.62z"/></g><rect width="16" height="190" x="816" y="417" fill="#CBD5E0"/><polygon fill="url(#f)" points="810 417 832 417 832 445 816 445 816 607 810 603"/><polygon fill="#CBD5E0" points="770 421 786 421 786 573 770 573"/><polygon fill="url(#g)" points="764 421 786 421 786 487 770 487 770 573 764 569"/><path fill="#A0AEC0" d="M212.38 577h14.48a6.33 6.33 0 0 1 3.64 11.5l-35.32 24.86a20 20 0 0 1-11.51 3.64H165a6.9 6.9 0 0 1-3.55-12.84l40.66-24.32a20 20 0 0 1 10.27-2.84z"/><path fill="#CBD5E0" d="M212.38 577h14.48c1.29 0 2.5.39 3.5 1.05a2.49 2.49 0 0 1-.7 3.56l-34.73 22.23a20 20 0 0 1-10.78 3.16H165c-1.8 0-3.4-.9-4.37-2.26.26-.2.53-.4.82-.58l40.66-24.32a20 20 0 0 1 10.27-2.84z"/><path fill="#A0AEC0" d="M191 419h16v172c-2.08 1.33-4.75 2-8 2s-5.92-.67-8-2V419z"/><path fill="#75849A" d="M191 419h16v82c-2.08 1.33-4.75 2-8 2s-5.92-.67-8-2v-82z"/><path fill="#CBD5E0" d="M477.47 367l-4.88 54H130v-13.93L200 367h277.47z"/><path fill="#A0AEC0" d="M508.47 367H792l70 40v14H503.59l4.88-54z"/><path fill="#E2E8F0" d="M477.47 367l-3.61 40H130l66.86-40h280.61z"/><path fill="#FFFFFF" d="M507.47 367H802l60 40H503.86l3.61-40z"/><g transform="translate(404 217)"><path fill="url(#h)" d="M70.4 117h42l4 35.42 16 14a2 2 0 0 1-2 2h-78a2 2 0 0 1-2-2l16-14 4-35.42z"/><path fill="#CBD5E0" d="M116.4 152.42l16 14a2 2 0 0 1-2 2h-78a2 2 0 0 1-2-2l16-14h50z"/><path fill="#A0AEC0" d="M132.4 166.42a2 2 0 0 1-2 2h-78a2 2 0 0 1-2-2h82zM16.44 0h149.92a6 6 0 0 1 5.98 5.53l9.05 114a6 6 0 0 1-5.98 6.47H7.4a6 6 0 0 1-5.98-6.47l9.04-114A6 6 0 0 1 16.44 0z"/><path fill="#E2E8F0" d="M12.62 0h157.56a6 6 0 0 1 6 5.71l5.42 112a6 6 0 0 1-6 6.29H7.2a6 6 0 0 1-6-6.29l5.43-112A6 6 0 0 1 12.62 0z"/><path fill="#CBD5E0" fill-rule="nonzero" d="M174.44 94H8.36l4.26-88h157.56l4.26 88z"/><path fill="#FFFFFF" fill-opacity=".13" fill-rule="nonzero" d="M48.36 94C57.39 76 71.9 61.33 91.9 50c20-11.33 34.33-26 43-44h35.28l4.26 88H48.36z"/><circle cx="91.4" cy="108.68" r="6" fill="#F8FAFC"/></g><g transform="translate(541 220)"><polygon fill="url(#i)" points="112 320.251 137.935 357.956 149.359 339.209 131.68 308"/><path fill="url(#j)" d="M52.6 100.48c-7.57-3-12.46-6.24-14.67-9.72-3.3-5.2-5.1-13.1-3.56-17.27l3.56 4.27c-.15-4.47.44-7.26 1.78-8.37 2-1.67 3.28 1.29 4.89 4.1 1.6 2.82 5.07.35 5.07 6.79 0 4.3.54 8.4 1.63 12.31l1.3 7.89z"/><path fill="#F6AD55" d="M67.33 119.27c-3.44-7.35-5.16-13.57-5.16-18.64 0-7.6-1.4-7.07 0-16.23 1.4-9.15-3.93-10.29-3.93-4.12 0 6.17-3.72 8.22-8.94 5.4-5.22-2.83-10.65-9.62-12.1-13.4-1.44-3.79-6.27-8.01-4.98 0 1.29 8 7.67 16.1 10.53 18.66 2.86 2.56 9.85 8.4 9.85 12.87 0 4.48-.17 14.4 1.32 24.45l13.41-8.99z"/><path fill="#FBD38D" d="M32.02 70.62c-.36-5.7 3.85-1.84 5.18 1.65 1.45 3.79 6.88 10.58 12.1 13.4 5.22 2.83 8.94.78 8.94-5.39v4c0 6.17-3.72 8.22-8.94 5.4-5.22-2.83-10.65-9.62-12.1-13.4-.77-2.03-2.9-5.58-4.01-6.12-.54-.25-.93-.1-1.17.46z"/><g transform="translate(92.97 136.5)"><path fill="#A0AEC0" fill-rule="nonzero" d="M7.72 29.83c5.55-1.68 9.7-3.82 14.54-4.33 5.47-.59 10.33-.32 14.2 1.65 7.62 3.89 7.98 7.76 7.98 7.76-.71 3.42 1.7 6.78-8.97 8.45-3.84.6-12.1.6-16.39 0-3.97-.55-7.63-.85-12.71-2.24-3.18-.87-6.29-2.5-6.29-6.16v-.05c0-.91-.02-1.68-.08-2.28 4.13-1.56 6.7-2.5 7.72-2.8z"/><path fill="#D0D9E3" fill-rule="nonzero" d="M7.72 29.33c5.55-1.5 9.7-3.4 14.54-3.86 5.47-.52 10.33-.29 14.2 1.47 7.62 3.47 7.98 6.93 7.98 6.93-.71 3.05 1.7 6.05-8.97 7.54-3.84.53-12.1.53-16.39 0-3.97-.5-7.63-.76-12.71-2-3.18-.77-6.29-2.22-6.29-5.5v-.04c0-3.1 5.1-3.85 7.64-4.54z"/><path fill="#F6AD55" d="M9.49 31.09C4.8 32.1 0 32.72 0 30.07c0-2.66 2.76-1.8 4.74-2.66 1.99-.87 5.18-3.73 9.43-4.5 4.26-.76 13.95.32 18.73-.97l-6.27 5.47c-8.3 1.77-14.02 3-17.14 3.68z"/><path fill="url(#k)" d="M64.45 0C48.3 12.36 39 19.07 36.53 20.15c-3.7 1.61-18.89 5.6-22.73 8.43-6.26.07-9.39 1.14-9.39 3.2 0 3.1 8.92 2.84 12.07 2.14 2.1-.46 3.5-.8 4.22-.99 2.9-.77 5.03-1.15 6.37-1.15-6.3 2.2-9.46 4.01-9.46 5.43 0 2.13 2.48 3.51 6.72 1.42 4.23-2.1 10.15-3.26 14.85-3.26 4.7 0 11.17-1.9 12.78-3.59 1.6-1.7 3.56-3.1 2.56-6.32 9.64-8.19 15.11-12.58 16.43-13.17L64.45 0z"/></g><path fill="url(#l)" d="M145.16 75.12c3.13 2.1 4.7 4.39 4.7 6.87 0 3.74-2.46 5.43-6.4 7.98-3.92 2.56 1.77 7.15 6.4 7.15 4.62 0 12.53-.36 16.13-4.93 3.6-4.58-.67-21.72-8.4-28.75l-12.43 11.68z"/><g transform="rotate(40 -399.995 235.774)"><polygon fill="url(#m)" points="17.047 4.291 12.189 51.531 27.492 50.161 40.27 4.535" transform="rotate(-40 26.23 27.911)"/><path fill="#CBD5E0" d="M37.51 41.36c-4.73 2.26-8.7 6-15.86 16.61S10.71 72.08 7.77 74.93C4.83 77.8-1.97 84.8 2.1 88.04c4.05 3.26 9.34 2.3 15.27-2.08 5.93-4.39 15.05-10.39 22.52-17.34 7.48-6.96 17.26-13.6 13.6-21.28-3.67-7.68-11.24-8.25-15.97-5.98z"/><path fill="#A0AEC0" d="M37.51 41.36c-3.36 1.6-6.33 3.96-10.34 8.98.56 5.45.08 9.64-1.44 12.58C20.9 72.35 12.8 77.3 9.85 80.15c-2.51 2.43-8.35 7.42-7.76 7.9 4.05 3.25 9.34 2.29 15.27-2.1 5.93-4.38 15.05-10.38 22.52-17.33 7.48-6.96 17.26-13.6 13.6-21.28-3.67-7.68-11.24-8.25-15.97-5.98z"/></g><path fill="#A0AEC0" d="M131.5 368.71c4.51-10.42 4-8.96 7.96-17.98 3.95-9.01 6.52-14.53 13.86-14.53 7.35 0 10.78 13.4 1.4 25.99-9.38 12.6-16.5 21.1-19.77 25.6-3.27 4.49-11.26 6.61-11.26 0 0-6.63 3.3-8.65 7.81-19.08z"/><path fill="#748399" d="M136.5 368.71c4.51-10.42 5-8.96 8.96-17.98 3.95-9.01 13.05-12.45 14.18-9.16 1.75 5.06.77 12.98-4.92 20.62-9.38 12.6-16.5 21.1-19.77 25.6-3.27 4.49-11.26 6.61-11.26 0 2.57-6.59 8.3-8.65 12.81-19.08z"/><polygon fill="#1A202C" points="76.699 263.687 112.855 324.8 135.59 312.547 110.521 256.701"/><path fill="#FBD38D" d="M120.26 23.22c-2.1 3.2-2.58 6.25-1.68 10.16.9 3.9.7 10.38-.9 16.7-1.6 6.34 4.56 11.2 5.42 12.46.86 1.25 10.13 10.34 12.75 12.15 2.62 1.8 8.91 4.92 13.66 1.6 4.74-3.32 9.95-11.28 11.15-15.58 1.2-4.3 2.17-10.26-2.3-27.33-2.46-9.35-6.88-17.28-22.51-17.28-6.94 0-13.48 3.91-15.59 7.12z"/><path fill="#F6AD55" d="M127.26 23.22c-2.1 3.2-2.58 6.25-1.68 10.16.9 3.9.7 10.38-.9 16.7-1.6 6.34 4.56 11.2 5.42 12.46.86 1.25 10.13 10.34 12.75 12.15 2.62 1.8 1.91 4.92 6.66 1.6 4.74-3.32 9.95-11.28 11.15-15.58 1.2-4.3 2.17-10.26-2.3-27.33-2.46-9.35-6.88-17.28-22.51-17.28-6.94 0-6.48 3.91-8.59 7.12z"/><path fill="url(#n)" d="M125.03 213.3c-29.78 5.88-47.75 11.1-53.9 15.65-9.23 6.83-11.39 11.79-12.8 28.5-1.4 16.7-7.5 60.42-7.5 70.55L74 331c10.27-26.83 16.6-50.32 18.97-70.46 52.95-4.2 82.94-7.37 90-9.52l-57.94-37.71z"/><path fill="#F7FAFC" d="M66.25 114.3c3.65 11.36 8.8 22.62 10.72 27.58 7.9-5.84 13.46-10.44 16.68-13.79 4.84-5.02 20.52-20.3 23.76-23.57 3.25-3.27 14.92-20.17 29.59-14.78 14.67 5.4 35.91 11.49 40.25 31.95 4.33 20.46-.63 20.07 2.67 43.06 3.31 22.99 20.53 33.95 20.53 52.34s-16.2 33.81-31.67 36.14c-15.48 2.33-38.02-3.22-58.1-39.74 10.83-3 17.12-8.1 18.86-15.29 2.61-10.77.24-17.86-6.97-27.01-7.2-9.15-14.95-8.38-19.46-25.74-11.07 9.99-22.5 17.82-34.28 23.51-17.68 8.54-21.58-11.9-22.88-21.23-.87-6.21-1.98-14.9-3.35-26.04l13.65-7.38z"/><path fill="url(#o)" d="M76.97 141.88a19.36 19.36 0 0 1 1.32 6.26c8.27-5.53 13.95-9.61 17.03-12.26 4.63-3.97 13.66-13.15 16.89-16.54 3.22-3.4 12.2-13.46 14.9-16.18 2.53-2.54 6.66-10.24 16.18-14.33 1.21.15 2.45.45 3.7.91 14.68 5.4 35.92 11.49 40.26 31.95 4.33 20.46-.63 20.07 2.67 43.06 3.31 22.99 20.53 33.95 20.53 52.34s-16.2 33.81-31.67 36.14c-15.48 2.33-38.02-3.22-58.1-39.74 10.83-3 17.12-8.1 18.86-15.29 2.61-10.77.24-17.86-6.97-27.01-7.2-9.15-14.95-8.38-19.46-25.74-11.07 9.99-22.5 17.82-34.28 23.51-17.68 8.54-21.58-11.9-22.88-21.23-.87-6.21-1.98-14.9-3.35-26.04l13.65-7.38c3.65 11.35 8.8 22.61 10.72 27.57z"/><path fill="#A0AEC0" d="M140.26 186.47c-.85-5.17-3.42-9.86-7.69-15.28-7.2-9.15-14.95-8.38-19.46-25.74 6.54-5.67 10.84-10.19 12.89-13.54.24 6.32.74 11.1 1.5 14.32 1.15 4.83 9.03 18.4 9.98 21.68.88 3.07 3.73 12.48 2.78 18.56z"/><path fill="#4C51BF" d="M132 1.28c-4.81 1.13-13.71 5.1-17.94 14.13-4.24 9.04 7 11 9.5 14.5s6 7 16 7 13.5 9.57 13.5 15.5-3.6 10.9 3.31 19.33c6.91 8.42-2.1 19.07 2.4 32.9 4.51 13.83 22.86 29.03 35.92 24.93 13.06-4.1 3.47-25.2 9.18-31.84 5.7-6.64 6.81-17.35-2.95-24.71-9.76-7.36-4.52-9.54-3.2-17.19 1.32-7.66-2.72-11.16-13.1-18.92-10.4-7.76-13.99-28.79-31.56-34.8C143.22-1.28 136.8.15 132 1.27z"/><path fill="#434190" d="M132 7.28c-4.96 2.16-8.9 4.95-10.94 11.13-1.73 5.24 3 8 5.5 11.5s3 7 13 7 13.5 9.57 13.5 15.5-3.6 10.9 3.31 19.33c6.91 8.42-2.1 19.07 2.4 32.9 4.51 13.83 22.86 29.03 35.92 24.93 13.06-4.1 3.47-25.2 9.18-31.84 5.7-6.64 6.81-17.35-2.95-24.71-9.76-7.36-4.52-9.54-3.2-17.19 1.32-7.66-2.72-11.16-13.1-18.92-10.4-7.76-10.4-24.38-31.56-29.8-9.96-2.56-16.1-1.99-21.06.17z"/><path fill="#3C366B" d="M137.51 13.84c-4.43 4.83 0 13.55 7.86 16.56 7.86 3.01 13.4 13.35 13.4 22.45s-.04 9.28 5.68 20.17c5.72 10.89-1.67 19.88 2.84 33.71 4.5 13.83 14.34 26.94 27.4 22.84 13.06-4.1 3.47-25.2 9.18-31.84 5.7-6.64 6.81-17.35-2.95-24.71-9.76-7.36-4.52-9.54-3.2-17.19 1.32-7.66-2.72-11.16-13.1-18.92-10.4-7.76-8.16-20.67-25.84-25.77-8.29-2.4-15.19-3.93-21.27 2.7z"/></g><g transform="translate(188 174)"><path fill="url(#p)" d="M64.68 202.9c-8.74-8.6-15.75-15.02-21.04-19.25-7.93-6.34-19.56-16.3-19.56-26.82s7.1-18.94 15.96-27.38c8.87-8.43 28.8-25.49 35.9-28.47L64.68 202.9z"/><path fill="#7F9CF5" d="M83.77 96.7c-11.14 3.33-18.68 10.6-22.64 21.81-5.94 16.83-2.9 43.35-2.9 55.88 0 12.54-.58 34.05-10.98 52.53C36.86 245.4 35.71 250.66 35.71 257c0 6.35 9.09 13.6 18.62 13.6 9.52 0 28.82-9.67 40.01-7.72 7.47 1.3 13.5 3.36 18.08 6.2 4.47-21.67 7.83-36.96 10.08-45.87 3.39-13.37 7.9-30.74 16.33-42.28 3.94 9.4 7.36 16.57 10.25 21.5 4.34 7.4 9.27 11.52 17.01 12.74 7.74 1.22 22.73 0 27.21 0 3.19-14.01 2.67-21.96-1.57-23.85a47.68 47.68 0 0 0-13.38-3.73c-6.28-9.62-10.36-16.67-12.26-21.14-2.84-6.7-6.87-22-10.35-31.17-3.48-9.16-11.95-22.89-22.6-27.53-10.64-4.65-22.92-4.85-32.95-6.23-6.7-.92-12.16-2.53-16.42-4.84z"/><path fill="#667EEA" d="M138.8 111.17c-11.72-3.19-31.44-4.79-43.81-6.73-8.69-1.36-13.62-3.52-14.81-6.49a39.6 39.6 0 0 1 3.59-1.26c4.26 2.31 9.73 3.92 16.42 4.84 10.03 1.38 22.31 1.58 32.95 6.23 1.97.85 3.86 2.02 5.66 3.41zm-16.3 112.05c5.26-20.5 10.7-34.58 16.33-42.28-2.77-6.9-4.8-12.06-6.12-15.46-3.1-8.08-5.58-19.36-7.41-33.85-1.18 6.53-1.77 16.64-1.77 30.33-7.48-3.51-10.02 4.86-11.61 10.96-2.41 9.26 1.12 26.03 10.58 50.3zM83.23 89.58c1.46-3.99 6.48-3.99 11.76-3.1v8.7c-5.98-.84-13.22-1.62-11.76-5.6z"/><path fill="#ED8936" d="M123.53 98.99c-2.2-3.37-2.2-6.26 0-8.69 2.2-2.42 4.3-4.1 6.26-5.05-13.84-9.36-26.24-13.34-37.19-11.94 1.82 5.94 1.82 12.22 0 18.85-1.8 6.62 8.5 8.9 30.93 6.83z"/><path fill="#A0AEC0" d="M37.77 264.67c-.82 7.3 1.58 15.08 7.2 23.31 8.43 12.35 28.35 45.67 35.23 61.58 6.87 15.92 30.44 97.23 33.83 113.13l27.73-1.94c-6.73-52.75-11.59-88.02-14.58-105.81-3-17.8-9.26-45.9-18.79-84.33l-70.62-5.94z"/><path fill="#7F9CF5" d="M82.37 90.73c-1.65 5.96 3.24 8.09 11.7 10.25 8.47 2.16 19.5 3.75 27.2 5.36 7.7 1.62 14.59 3.14 17.34 4.97-2.44-6.6-4.69-11.48-6.74-14.62-3.96 1-9.4 1-16.34 0-10.4-1.5-20.33-3.5-25.84-3.5-5.52 0-6.12-6.03-1.52-6.8-3.06 0-5 1.44-5.8 4.34z"/><g transform="matrix(-1 0 0 1 108 267.152)"><path fill="#A0AEC0" d="M51 208.79c28.17 0 51-3.58 51-8v-4.1c-19.6-10.66-36.6-16-51-16-15.59 0-32.59 5.34-51 16v4.1c0 4.42 22.83 8 51 8z"/><path fill="#CBD5E0" d="M51 204.79c28.17 0 51-3.58 51-8v-.1c-19.6-10.66-36.6-16-51-16-15.59 0-32.59 5.34-51 16v.1c0 4.42 22.83 8 51 8z"/><path fill="#A0AEC0" d="M46 23.7h10v161c-1.67.66-3.33 1-5 1s-3.33-.34-5-1v-161z"/><path fill="#728197" d="M46 23.7h10v31c-1.67.66-3.33 1-5 1s-3.33-.34-5-1v-31z"/><path fill="url(#q)" d="M19.47 12.49c12.4-4.94 37-13.82 68.54-12.32 17.32.82 20.86 10.16 18.86 17.25-2.36 8.38-10.57 10.92-18.86 10.92-12.02 0-38.41.53-79.18 1.58-.75.02-1.75-12.5 10.64-17.43z"/><path fill="url(#r)" d="M6.55 29.98c-1.27-7 2.82-11.2 12.27-12.56 14.17-2.06 37.93-.86 75.17-4.93 7.12-.78 9.5-3.79 7.13-9.02 5.96 3.54 7.08 9.24 5.75 13.95-2.36 8.38-10.57 10.92-18.86 10.92-12.24 0-39.4.55-81.46 1.64z"/></g><path fill="#CBD5E0" d="M35.7 254.09c-2.26 7.38-1.34 14.1 2.77 20.13 6.17 9.06 20.77 19.31 35.05 24.85 14.27 5.53 56.36 17.98 64.3 21.83l-44.45 52.24 18.55 18.35c41.53-38.76 64.97-61 70.3-66.73 8.02-8.6 10.86-22.77 0-31.41-10.85-8.64-76.73-45.2-88.85-48.07-12.11-2.87-20.5-.92-31.98 3.22a108.07 108.07 0 0 1-25.68 5.59z"/><path fill="#F6AD55" d="M143.5 23.87c4.89 5.02 7.25 8.89 4.83 14.49-2.4 5.6-4.82 8.04-2.4 12.05 2.4 4.01 6.19 5.9 1.1 16.86-5.08 10.96-11.98 21.16-18.37 21.16-6.4 0-13.14-4.88-16.89-8.3-3.75-3.41-8.78-7.2-11.97-16.18-3.18-9-3.67-24 2.49-34.37 6.16-10.37 13.67-14.83 21.24-14.83 7.56 0 15.08 4.1 19.97 9.12z"/><path fill="#4C51BF" d="M92.76 75.5c-4.77-10.09-8.33-16.97-10.7-20.65-3.54-5.53-5.1-20.26-1.88-29.28 3.2-9.01 12.03-19.45 27.35-23.22 10.22-2.51 20.57.39 31.08 8.7-1.05-3.66-.72-5.5 1-5.5 1.7 0 3.37 1.84 5 5.5-1.58-5.7-1.58-9.24 0-10.63 2.35-2.09 5.75 4.21 6.75 6.92 1 2.72 11.16 17.69-1.24 22.21-12.4 4.53-18.06-1.44-20.7-1.44-2.64 0-3.22 3.15-2.34 6.4.89 3.24 3.8 9.61 2.34 13.53-1.45 3.92-3.02-2.92-8.34-.76-5.31 2.16-3.97 8.89-3.97 10.67 0 1.77.75 11.89-.98 14.48-1.92 2.04-5.22 3.37-9.9 3.98-4.7.61-9.18.3-13.47-.91z"/><path fill="#3C366B" d="M92.76 75.5c-3.16-9.46-5.73-16.35-7.7-20.65-2.94-6.47-4.1-20.26-.88-29.28 3.2-9.01 9.99-16.25 25.3-20.01 10.22-2.51 19.93-.68 29.13 5.5-.38-2.34.28-3.5 2-3.5 1.7 0 3.04 1.16 4 3.5-.91-3.7-.58-6.25 1-7.64 2.35-2.09 4.75 1.21 5.75 3.92 1 2.72 11.16 17.69-1.24 22.21-12.4 4.53-18.06-1.44-20.7-1.44-2.64 0-3.22 3.15-2.34 6.4.89 3.24 3.8 9.61 2.34 13.53-1.45 3.92-3.02-2.92-8.34-.76-5.31 2.16-3.97 8.89-3.97 10.67 0 1.77.75 11.89-.98 14.48-1.92 2.04-5.22 3.37-9.9 3.98-4.7.61-9.18.3-13.47-.91z"/><path fill="#F6AD55" d="M216.86 201.2c2.24-2.94 4.53-4.4 6.87-4.4 3.5 0 5.29 1.34 7.26 1.34 1.97 0 4.56-.38 4.56 2.42 0 1.87-6.23 2.08-18.7.63z"/><g fill-rule="nonzero" transform="matrix(-1 0 0 1 256.915 205.662)"><path fill="#A0AEC0" d="M7.72 4.6C13.27 2.94 17.42.8 22.26.28c5.47-.58 10.33-.32 14.2 1.66 7.62 3.88 7.98 7.76 7.98 7.76-.71 3.41 1.7 6.78-8.97 8.45-3.84.6-12.1.6-16.39 0-3.97-.56-7.63-.86-12.71-2.24C3.19 15.03.08 13.4.08 9.74v-.05C.08 8.77.06 8 0 7.4c4.13-1.55 6.7-2.48 7.72-2.8z"/><path fill="#EDF2F7" d="M7.72 4.11c5.55-1.5 9.7-3.4 14.54-3.87 5.47-.52 10.33-.28 14.2 1.48 7.62 3.47 7.98 6.92 7.98 6.92-.71 3.05 1.7 6.06-8.97 7.55-3.84.53-12.1.53-16.39 0-3.97-.5-7.63-.77-12.71-2C3.19 13.4.08 11.96.08 8.69v-.05c0-3.09 5.1-3.84 7.64-4.53z"/></g><path fill="#FBD38D" d="M200.02 197.08c7.06 1.67 11.69 2.5 13.87 2.5 3.28 0 12.65 1.08 15.32 1.08 2.68 0 10.97-1.45 13.31.68s3.07 2.4 4.8 3.08c1.72.7 4.42 2.29 4.42 4.31 2.33-.07 3.5.63 3.5 2.1 0 2.22-3.88 3.85-7.92 1.93-4.05-1.92-5.56-1.98-8.49 0-2.92 1.98-8.04 5.9-13.02 5.9-3.32 0-5.91-.88-7.79-2.64-9.01-.03-14.43.21-16.25.74l-1.75-19.68z"/><path fill="url(#s)" d="M200.02 200.08c7.06 1.67 11.69 2.5 13.87 2.5 3.28 0 12.65 1.08 15.32 1.08 1.82 0 6.96-1.31 11.75-1.08 2.26.11 5.8 1.62 6.36 1.84 1.72.7 4.42 2.29 4.42 4.31 2.33-.07 3.5.63 3.5 2.1 0 2.22-3.88 3.85-7.92 1.93-4.05-1.92-5.56-1.98-8.49 0-2.92 1.98-8.04 5.9-13.02 5.9-3.32 0-5.91-.88-7.79-2.64-9.01-.03-14.43.21-16.25.74l-1.75-16.68z"/><path fill="url(#t)" d="M187.2 189.56c.5-.8 2.48-.8 5.94 0 5.18 1.22 10.76 3.8 11.65 10.5.88 6.69 1.79 14.22 1.34 18.4-3.89 1.1-7.02 2.6-9.4 4.5-3.6 2.86-6.68 5.2-8.5 2.6-1.83-2.6-1.12-10.46 0-14.1a59.68 59.68 0 0 0 2.12-15.44c0-3.64-1.05-5.8-3.15-6.46z"/><path fill="#A3BFFA" d="M187.2 189.56c.36-.2.63-.32.82-.39.47-.16 3.62 1.41 3.62 7.63 0 6.21-1.8 13.37-2.6 18.78-.55 3.61-.2 7.31 1.05 11.1-.72-.03-1.34-.37-1.86-1.12-1.83-2.6-1.12-10.46 0-14.1a59.68 59.68 0 0 0 2.12-15.44c0-3.64-1.05-5.8-3.15-6.46z"/><path fill="#4A5568" d="M111.92 384.24c2.43 3.9 4.24 7.02 7 14.8 2.76 7.77 9.8 14.7 11.87 18.55 2.08 3.84 10.26 16.16 3.44 19.06-6.8 2.9-13.93-2.4-18.12-7.33-4.2-4.93-9.15-12.16-13.13-15.95-3.98-3.79-17.03-15.6-20.06-26.2-3.03-10.6 7.8-18.9 15.93-15.02 8.14 3.88 10.64 8.2 13.07 12.1z"/><path fill="#2D3748" d="M94.39 385.05c2.43 3.9 12.6 14.83 17.53 21.2 4.93 6.36 10.88 12.28 14.57 16.43 3.68 4.14 10.4 14.79 3.56 14.79-5.41 0-10.6-4.23-13.94-8.15-4.2-4.93-9.15-12.16-13.13-15.95-3.98-3.79-17.03-15.6-20.06-26.2-.63-2.2-1.42-4.81-.24-6.23 4.1-4.95 9.28.21 11.7 4.11z"/><path fill="#4A5568" d="M111.65 470.54c-2.2-6.5-.84-10.8 4.06-12.87 7.36-3.1 15.4-1.96 21.73-1.96 6.32 0 24.5 3.68 29.8 3.68 5.28 0 12.5-1.05 15.38 4.99 1.93 4.03-1.57 6.18-10.49 6.46l-60.48-.3z"/><path fill="#E2E8F0" d="M52 385.9v2.99c-17.48.28-31 2.17-31 4.46 0 2.48 15.9 4.5 35.5 4.5s35.5-2.02 35.5-4.5c0-2.25-13-4.11-30-4.45v-2.97c20.32.58 36 4.35 36 8.92 0 4.97-18.58 9-41.5 9s-41.5-4.03-41.5-9c0-4.64 16.2-8.46 37-8.95z"/></g><g transform="translate(31 93)"><circle cx="36" cy="36" r="36" fill="#E2E8F0"/><circle cx="36" cy="36" r="30" fill="#FFFFFF"/><rect width="2" height="21" x="35" y="16" fill="#CBD5E0"/><path fill="#CBD5E0" d="M48.99 43.5a1 1 0 0 1-1.37.37l-12.12-7a1 1 0 0 1 1-1.74l12.12 7A1 1 0 0 1 49 43.5z"/></g><polygon fill="#A0AEC0" points="672 483 680 485 656 605 652 605"/><polygon fill="#76859B" points="672 483 680 485 676.192 504.041 675.527 507.364 668.226 506.019"/><polygon fill="#A0AEC0" points="721 483 729 485 715 605 711 605"/><polygon fill="#748399" points="721 483 729 485 723.295 533.898 716.9 533.016"/><polyline stroke="#76859B" stroke-linecap="round" stroke-linejoin="round" stroke-width="2" points="724.943 495 816.5 555.8 758.439 497"/><polygon fill="#A0AEC0" points="791 486 801 485 835 609 829 609"/><polygon fill="#728197" points="791 486 801 485 812.98 528.692 804.659 530.213"/><polyline stroke="#76859B" stroke-linecap="round" stroke-linejoin="round" stroke-width="2" points="766 557 798.5 492.8 719.439 547"/><polygon fill="#A0AEC0" points="753 487 763 486 777 610 771 610 756.971 514.133"/><polygon fill="#75849A" points="753 487 763 486 766.155 513.942 756.971 514.133"/><path fill="#F8FAFC" d="M749.21 357.8c-9.1 5.67-14.26 22.29-15.47 49.85 0 38.27-7.58 58.49-22.76 60.64-22.76 3.24-52.06-.33-52.06 8.7 0 6 10.48 9.87 31.44 11.6 58 5.75 94.28 5.75 108.82 0 21.82-8.62 23.82-14.9 25-29.68.68-8.67 0-20.76-3.18-41.91-3.17-21.15-6.64-44.24-16.51-54.59-9.88-10.34-20-9.92-29.49-10.08-7.38-.12-18.48.93-25.79 5.48z"/><path fill="url(#u)" d="M752.21 357.8c-9.1 5.67-13.93 22.29-14.47 49.85-.66 40.94-8.58 62.49-23.76 64.64-22.76 3.24-55.06-4.33-55.06 4.7 0 6 10.48 9.87 31.44 11.6 58 5.75 94.28 5.75 108.82 0 21.82-8.62 23.82-14.9 25-29.68.68-8.67 0-20.76-3.18-41.91-3.17-21.15-6.64-44.24-16.51-54.59-9.88-10.34-20-9.92-29.49-10.08-7.38-.12-15.48.93-22.79 5.48z"/><polyline stroke="#76859B" stroke-linecap="round" stroke-linejoin="round" stroke-width="2" points="724.943 495 662.5 554.8 756.439 497"/><polyline stroke="#76859B" stroke-linecap="round" stroke-linejoin="round" stroke-width="2" points="767 557 673.5 489.8 719.439 547"/><path fill="#FFFFFF" d="M263.29 148a7 7 0 0 1 7.89-8.9 10 10 0 0 1 19.73.52 8 8 0 0 1 11.03 8.38h-38.65zm160 0a7 7 0 0 1 7.89-8.9 10 10 0 0 1 19.73.52 8 8 0 0 1 11.03 8.38h-38.65zm-61.7 30a8 8 0 0 1 10.07-10.55 10 10 0 0 1 19.14 1.55h.2a7 7 0 0 1 6.71 9h-36.13z"/></g></svg>